<svg width="118" height="118" xmlns="http://www.w3.org/2000/svg" xmlns:xlink="http://www.w3.org/1999/xlink" xml:space="preserve" overflow="hidden"><g transform="translate(-304 -391)"><path d="M332.271 491.792 332.271 408.208 363 408.208 363 434.021 393.729 434.021 393.729 491.792 332.271 491.792ZM370.375 411.281 385.74 426.646 370.375 426.646 370.375 411.281ZM370.375 400.833 324.896 400.833 324.896 499.167 401.104 499.167 401.104 427.875 370.375 400.833Z"/><path d="M339.646 446.312 386.354 446.312 386.354 451.229 339.646 451.229Z"/><path d="M339.646 436.479 355.625 436.479 355.625 441.396 339.646 441.396Z"/><path d="M339.646 456.146 386.354 456.146 386.354 461.062 339.646 461.062Z"/><path d="M339.646 465.979 386.354 465.979 386.354 470.896 339.646 470.896Z"/><path d="M339.646 475.812 386.354 475.812 386.354 480.729 339.646 480.729Z"/></g></svg>