<svg width="405" height="406" xmlns="http://www.w3.org/2000/svg" xmlns:xlink="http://www.w3.org/1999/xlink" xml:space="preserve" overflow="hidden"><g transform="translate(-1056 -1855)"><path d="M341.719 320.625 63.2812 320.625C54 320.625 46.4062 313.031 46.4062 303.75L46.4062 101.25C46.4062 91.9687 54 84.375 63.2812 84.375L142.594 84.375C145.969 84.375 149.344 85.2187 151.875 87.3281L198.281 118.125 341.719 118.125C351 118.125 358.594 125.719 358.594 135L358.594 303.75C358.594 313.031 351 320.625 341.719 320.625Z" transform="matrix(1 0 0 1.00247 1056 1855)"/><g><g><g><path d="M1371.44 2159.25 1144.56 2159.25C1137 2159.25 1130.81 2153.06 1130.81 2145.5L1130.81 1980.5C1130.81 1972.94 1137 1966.75 1144.56 1966.75L1209.19 1966.75C1211.94 1966.75 1214.69 1967.44 1216.75 1969.16L1254.56 1994.25 1371.44 1994.25C1379 1994.25 1385.19 2000.44 1385.19 2008L1385.19 2145.5C1385.19 2153.06 1379 2159.25 1371.44 2159.25Z" fill="#FFD966"/></g></g></g></g></svg>